<svg width="10" height="11" viewBox="0 0 10 11" fill="none" xmlns="http://www.w3.org/2000/svg">
<path d="M0.311524 4.76581L1.08008 5.23554C1.51641 5.48373 2.00974 5.61429 2.51172 5.61445C2.62886 5.61326 2.74573 5.60314 2.86133 5.58417L3.61231 5.46796C3.88554 5.80592 4.17562 6.1299 4.48145 6.43867C4.02424 6.29251 3.54053 6.24851 3.06445 6.30976L2.03223 6.46894C1.99254 6.47501 1.95569 6.49316 1.92669 6.52093C1.89769 6.54869 1.87794 6.58472 1.87015 6.6241C1.86236 6.66349 1.8669 6.70432 1.88314 6.74103C1.89939 6.77775 1.92655 6.80857 1.96094 6.82929L2.86133 7.37226C3.3643 7.65951 3.93348 7.81064 4.5127 7.81074C4.64641 7.81086 4.77994 7.80073 4.91211 7.78046L5.86328 7.63398C6.32374 7.97243 6.81178 8.27166 7.32227 8.52851C7.53809 8.63691 7.74512 8.73066 7.94238 8.81171C7.31579 8.84953 6.71244 9.06272 6.20117 9.42695L5.36816 10.0559C5.33589 10.08 5.31187 10.1135 5.29939 10.1518C5.28692 10.1901 5.28659 10.2313 5.29846 10.2698C5.31033 10.3083 5.33382 10.3422 5.36571 10.3669C5.39759 10.3915 5.43631 10.4057 5.47656 10.4074L6.52246 10.4592C6.5625 10.4592 6.60352 10.4592 6.64453 10.4592C7.32114 10.4493 7.97865 10.2333 8.5293 9.84003L9.31055 9.24726C9.52654 9.29785 9.74583 9.33309 9.9668 9.35273L9.97852 9.15742L9.99023 8.9621C9.80515 8.94456 9.62147 8.91454 9.44043 8.87226L9.32227 7.98456C9.20772 7.27447 8.86489 6.62103 8.3457 6.12324L7.57324 5.41523C7.54319 5.39078 7.50654 5.37583 7.46796 5.37227C7.42938 5.3687 7.39061 5.3767 7.35659 5.39523C7.32257 5.41376 7.29482 5.44199 7.27688 5.47633C7.25895 5.51067 7.25163 5.54957 7.25586 5.58808L7.39356 6.62324C7.50635 7.33286 7.84749 7.98634 8.36523 8.48456L8.48633 8.59589C7.95302 8.40192 7.43852 8.1597 6.94922 7.87226L6.8252 6.93671C6.71045 6.22668 6.36765 5.57331 5.84863 5.07538L5.07617 4.36835C5.04663 4.34148 5.00957 4.32432 4.96997 4.31916C4.93037 4.314 4.89014 4.32111 4.85471 4.33952C4.81927 4.35793 4.79033 4.38676 4.77179 4.42212C4.75324 4.45748 4.74598 4.49768 4.75098 4.5373L4.88867 5.57245C4.94455 5.94491 5.06729 6.30421 5.25098 6.633C4.77902 6.21043 4.34144 5.75097 3.94238 5.25898L4.20508 4.58222C4.40221 4.04272 4.41526 3.45315 4.24219 2.90546L3.97852 2.12421C3.96553 2.08638 3.94123 2.05345 3.90892 2.02988C3.87661 2.0063 3.83784 1.99321 3.79785 1.99238C3.75779 1.99142 3.71841 2.00281 3.68505 2.02499C3.65168 2.04718 3.62594 2.07909 3.61133 2.1164L3.31836 2.88007C3.15843 3.32146 3.12031 3.79777 3.20801 4.25898C3.09929 4.09817 2.99251 3.93216 2.8877 3.76093V2.97968C2.87168 2.37698 2.65635 1.79659 2.27539 1.32929L1.71875 0.667182C1.69294 0.636527 1.65833 0.614552 1.61961 0.604238C1.58089 0.593923 1.53994 0.595768 1.5023 0.609522C1.46466 0.623276 1.43217 0.648273 1.40922 0.681124C1.38627 0.713974 1.37399 0.753087 1.37402 0.793158V1.65546C1.38964 2.25608 1.60356 2.83466 1.98242 3.30097L2.54297 3.96601C2.55037 3.97456 2.55854 3.9824 2.56738 3.98945C2.69173 4.19062 2.81738 4.38398 2.94434 4.56953C2.4275 4.30472 1.8426 4.20259 1.2666 4.27656L0.387696 4.41328C0.348851 4.41864 0.31252 4.43558 0.283433 4.46188C0.254346 4.48818 0.23385 4.52263 0.224611 4.56074C0.216473 4.5997 0.220436 4.64023 0.23597 4.67688C0.251503 4.71353 0.277864 4.74456 0.311524 4.76581Z" fill="#FFEA4B"/>
</svg>
