<svg width="11" height="11" viewBox="0 0 11 11" fill="none" xmlns="http://www.w3.org/2000/svg">
<path d="M10.4033 4.76581L9.63476 5.23554C9.19843 5.48373 8.7051 5.61429 8.20312 5.61445C8.08599 5.61326 7.96911 5.60314 7.85351 5.58417L7.10254 5.46796C6.82931 5.80592 6.53923 6.1299 6.2334 6.43867C6.6906 6.29251 7.17432 6.24851 7.65039 6.30976L8.68262 6.46894C8.7223 6.47501 8.75916 6.49316 8.78816 6.52093C8.81716 6.54869 8.8369 6.58472 8.84469 6.6241C8.85248 6.66349 8.84795 6.70432 8.8317 6.74103C8.81546 6.77775 8.78829 6.80857 8.75391 6.82929L7.85351 7.37226C7.35054 7.65951 6.78136 7.81064 6.20215 7.81074C6.06843 7.81086 5.9349 7.80073 5.80273 7.78046L4.85156 7.63398C4.39111 7.97243 3.90307 8.27166 3.39258 8.52851C3.17676 8.63691 2.96973 8.73066 2.77246 8.81171C3.39906 8.84953 4.00241 9.06272 4.51367 9.42695L5.34668 10.0559C5.37895 10.08 5.40297 10.1135 5.41545 10.1518C5.42793 10.1901 5.42825 10.2313 5.41638 10.2698C5.40451 10.3083 5.38102 10.3422 5.34914 10.3669C5.31725 10.3915 5.27853 10.4057 5.23828 10.4074L4.19238 10.4592C4.15234 10.4592 4.11133 10.4592 4.07031 10.4592C3.3937 10.4493 2.7362 10.2333 2.18555 9.84003L1.4043 9.24726C1.18831 9.29785 0.96901 9.33309 0.748047 9.35273L0.736328 9.15742L0.724609 8.9621C0.90969 8.94456 1.09338 8.91454 1.27441 8.87226L1.39258 7.98456C1.50712 7.27447 1.84995 6.62103 2.36914 6.12324L3.1416 5.41523C3.17166 5.39078 3.20831 5.37583 3.24689 5.37227C3.28546 5.3687 3.32423 5.3767 3.35825 5.39523C3.39228 5.41376 3.42002 5.44199 3.43796 5.47633C3.4559 5.51067 3.46321 5.54957 3.45898 5.58808L3.32129 6.62324C3.20849 7.33286 2.86735 7.98634 2.34961 8.48456L2.22852 8.59589C2.76182 8.40192 3.27632 8.1597 3.76562 7.87226L3.88965 6.93671C4.0044 6.22668 4.34719 5.57331 4.86621 5.07538L5.63867 4.36835C5.66821 4.34148 5.70528 4.32432 5.74487 4.31916C5.78447 4.314 5.8247 4.32111 5.86013 4.33952C5.89557 4.35793 5.92451 4.38676 5.94306 4.42212C5.96161 4.45748 5.96887 4.49768 5.96387 4.5373L5.82617 5.57245C5.7703 5.94491 5.64756 6.30421 5.46387 6.633C5.93582 6.21043 6.3734 5.75097 6.77246 5.25898L6.50976 4.58222C6.31263 4.04272 6.29958 3.45315 6.47266 2.90546L6.73633 2.12421C6.74932 2.08638 6.77361 2.05345 6.80592 2.02988C6.83823 2.0063 6.877 1.99321 6.91699 1.99238C6.95705 1.99142 6.99643 2.00281 7.0298 2.02499C7.06317 2.04718 7.0889 2.07909 7.10351 2.1164L7.39648 2.88007C7.55641 3.32146 7.59453 3.79777 7.50683 4.25898C7.61556 4.09817 7.72233 3.93216 7.82715 3.76093V2.97968C7.84316 2.37698 8.05849 1.79659 8.43945 1.32929L8.99609 0.667182C9.0219 0.636527 9.05651 0.614552 9.09523 0.604238C9.13395 0.593923 9.17491 0.595768 9.21255 0.609522C9.25018 0.623276 9.28268 0.648273 9.30562 0.681124C9.32857 0.713974 9.34086 0.753087 9.34082 0.793158V1.65546C9.32521 2.25608 9.11129 2.83466 8.73242 3.30097L8.17187 3.96601C8.16447 3.97456 8.1563 3.9824 8.14746 3.98945C8.02311 4.19062 7.89746 4.38398 7.77051 4.56953C8.28735 4.30472 8.87224 4.20259 9.44824 4.27656L10.3271 4.41328C10.366 4.41864 10.4023 4.43558 10.4314 4.46188C10.4605 4.48818 10.481 4.52263 10.4902 4.56074C10.4984 4.5997 10.4944 4.64023 10.4789 4.67688C10.4633 4.71353 10.437 4.74456 10.4033 4.76581Z" fill="#FFEA4B"/>
</svg>
